<mxfile host="app.diagrams.net" modified="2024-06-20T05:18:30.101Z" agent="Mozilla/5.0 (Macintosh; Intel Mac OS X 10_15_7) AppleWebKit/537.36 (KHTML, like Gecko) Chrome/125.0.0.0 Safari/537.36" etag="cyw8XQCvUpTcp3MuCdPv" version="24.5.5" type="device">
  <diagram name="Page-1" id="c7558073-3199-34d8-9f00-42111426c3f3">
    <mxGraphModel dx="1569" dy="955" grid="1" gridSize="10" guides="1" tooltips="1" connect="1" arrows="1" fold="1" page="1" pageScale="1" pageWidth="826" pageHeight="1169" background="none" math="0" shadow="0">
      <root>
        <mxCell id="0" />
        <mxCell id="1" parent="0" />
        <mxCell id="2" value="&lt;p style=&quot;margin: 0px; margin-top: 4px; text-align: center; text-decoration: underline;&quot;&gt;&lt;br&gt;&lt;/p&gt;" style="verticalAlign=middle;align=center;overflow=fill;fontSize=12;fontFamily=Helvetica;html=1;rounded=1;fontStyle=1;strokeWidth=3;fillColor=#E6FFCC" parent="1" vertex="1">
          <mxGeometry x="720" y="180" width="110" height="90" as="geometry" />
        </mxCell>
        <mxCell id="3" value="" style="whiteSpace=wrap;align=center;verticalAlign=middle;fontStyle=1;strokeWidth=3;fillColor=#FFFFCC" parent="1" vertex="1">
          <mxGeometry x="40" y="400" width="450" height="240" as="geometry" />
        </mxCell>
        <mxCell id="4" value="" style="whiteSpace=wrap;align=center;verticalAlign=middle;fontStyle=1;strokeWidth=3;fillColor=#FFFFCC" parent="1" vertex="1">
          <mxGeometry x="690" y="406" width="200" height="230" as="geometry" />
        </mxCell>
        <mxCell id="36" value="" style="edgeStyle=none;noEdgeStyle=1;strokeColor=#990000;strokeWidth=2;entryX=0;entryY=0.5;entryDx=0;entryDy=0;" parent="1" source="3" target="4" edge="1">
          <mxGeometry width="100" height="100" relative="1" as="geometry">
            <mxPoint x="20" y="250" as="sourcePoint" />
            <mxPoint x="120" y="150" as="targetPoint" />
          </mxGeometry>
        </mxCell>
        <mxCell id="6QE7fg_1hsD1uOm2dsT_-96" value="CapabilityStatement" style="whiteSpace=wrap;align=center;verticalAlign=middle;fontStyle=1;strokeWidth=3;fillColor=#FFFFCC" vertex="1" parent="1">
          <mxGeometry x="70" y="450" width="140" height="60" as="geometry" />
        </mxCell>
        <mxCell id="6QE7fg_1hsD1uOm2dsT_-97" value="&lt;b&gt;Project FHIR IG&lt;/b&gt;" style="text;html=1;align=center;verticalAlign=middle;whiteSpace=wrap;rounded=0;" vertex="1" parent="1">
          <mxGeometry x="40" y="406" width="130" height="30" as="geometry" />
        </mxCell>
        <mxCell id="6QE7fg_1hsD1uOm2dsT_-98" value="StructureDefinitions" style="whiteSpace=wrap;align=center;verticalAlign=middle;fontStyle=1;strokeWidth=3;fillColor=#FFFFCC" vertex="1" parent="1">
          <mxGeometry x="70" y="526" width="140" height="60" as="geometry" />
        </mxCell>
        <mxCell id="6QE7fg_1hsD1uOm2dsT_-99" value="" style="whiteSpace=wrap;align=center;verticalAlign=middle;fontStyle=1;strokeWidth=3;fillColor=#FFFFCC" vertex="1" parent="1">
          <mxGeometry x="40" y="70" width="250" height="200" as="geometry" />
        </mxCell>
        <mxCell id="6QE7fg_1hsD1uOm2dsT_-100" value="&lt;b&gt;HNZ Digital Tooling IG&lt;/b&gt;" style="text;html=1;align=center;verticalAlign=middle;whiteSpace=wrap;rounded=0;" vertex="1" parent="1">
          <mxGeometry x="50" y="70" width="130" height="30" as="geometry" />
        </mxCell>
        <mxCell id="6QE7fg_1hsD1uOm2dsT_-101" value="HnzToolingCapabilityStatement" style="whiteSpace=wrap;align=center;verticalAlign=middle;fontStyle=1;strokeWidth=3;fillColor=#FFFFCC" vertex="1" parent="1">
          <mxGeometry x="50" y="130" width="200" height="60" as="geometry" />
        </mxCell>
        <mxCell id="6QE7fg_1hsD1uOm2dsT_-102" value="&lt;b&gt;Profiles available to consume:&lt;/b&gt;" style="text;html=1;align=center;verticalAlign=middle;whiteSpace=wrap;rounded=0;" vertex="1" parent="1">
          <mxGeometry x="50" y="100" width="180" height="30" as="geometry" />
        </mxCell>
        <mxCell id="6QE7fg_1hsD1uOm2dsT_-103" value="HnzToolingMetadataExtension" style="whiteSpace=wrap;align=center;verticalAlign=middle;fontStyle=1;strokeWidth=3;fillColor=#FFFFCC" vertex="1" parent="1">
          <mxGeometry x="50" y="200" width="200" height="60" as="geometry" />
        </mxCell>
        <mxCell id="6QE7fg_1hsD1uOm2dsT_-109" value="" style="edgeStyle=none;noEdgeStyle=1;strokeColor=#990000;strokeWidth=2;entryX=0.158;entryY=-0.009;entryDx=0;entryDy=0;entryPerimeter=0;" edge="1" parent="1" target="3">
          <mxGeometry width="100" height="100" relative="1" as="geometry">
            <mxPoint x="110" y="273" as="sourcePoint" />
            <mxPoint x="150" y="390" as="targetPoint" />
          </mxGeometry>
        </mxCell>
        <mxCell id="6QE7fg_1hsD1uOm2dsT_-110" value="&lt;b&gt;Project IGs consume Digital Tooling package&lt;/b&gt;" style="text;html=1;align=center;verticalAlign=middle;whiteSpace=wrap;rounded=0;" vertex="1" parent="1">
          <mxGeometry x="110" y="290" width="280" height="30" as="geometry" />
        </mxCell>
        <mxCell id="6QE7fg_1hsD1uOm2dsT_-111" value="Instance of&amp;nbsp;HnzToolingCapabilityStatement" style="text;html=1;align=center;verticalAlign=middle;whiteSpace=wrap;rounded=0;" vertex="1" parent="1">
          <mxGeometry x="190" y="465" width="300" height="30" as="geometry" />
        </mxCell>
        <mxCell id="6QE7fg_1hsD1uOm2dsT_-112" value="Profiles describing FHIR resources" style="text;html=1;align=center;verticalAlign=middle;whiteSpace=wrap;rounded=0;" vertex="1" parent="1">
          <mxGeometry x="210" y="541" width="220" height="30" as="geometry" />
        </mxCell>
        <mxCell id="6QE7fg_1hsD1uOm2dsT_-113" value="&lt;br class=&quot;Apple-interchange-newline&quot;&gt;&lt;span style=&quot;font-weight: 700; text-wrap: nowrap;&quot;&gt;OpenAPI Generator tool&lt;/span&gt;" style="text;html=1;align=center;verticalAlign=middle;whiteSpace=wrap;rounded=0;" vertex="1" parent="1">
          <mxGeometry x="760" y="450" width="60" height="30" as="geometry" />
        </mxCell>
        <mxCell id="6QE7fg_1hsD1uOm2dsT_-115" value="&lt;b&gt;Consumes Project IG&lt;/b&gt;" style="text;html=1;align=center;verticalAlign=middle;whiteSpace=wrap;rounded=0;" vertex="1" parent="1">
          <mxGeometry x="450" y="480" width="280" height="30" as="geometry" />
        </mxCell>
        <mxCell id="6QE7fg_1hsD1uOm2dsT_-116" value="&lt;b&gt;Outputs OpenAPI&lt;/b&gt;" style="text;html=1;align=center;verticalAlign=middle;whiteSpace=wrap;rounded=0;" vertex="1" parent="1">
          <mxGeometry x="690" y="320" width="280" height="30" as="geometry" />
        </mxCell>
        <mxCell id="6QE7fg_1hsD1uOm2dsT_-117" value="&lt;br class=&quot;Apple-interchange-newline&quot;&gt;&lt;span style=&quot;font-weight: 700; text-wrap: nowrap;&quot;&gt;OpenAPI spec&lt;/span&gt;" style="text;html=1;align=center;verticalAlign=middle;whiteSpace=wrap;rounded=0;" vertex="1" parent="1">
          <mxGeometry x="745" y="199" width="60" height="30" as="geometry" />
        </mxCell>
        <mxCell id="6QE7fg_1hsD1uOm2dsT_-118" value="" style="edgeStyle=none;noEdgeStyle=1;strokeColor=#990000;strokeWidth=2;entryX=0.5;entryY=1;entryDx=0;entryDy=0;" edge="1" parent="1" target="2">
          <mxGeometry width="100" height="100" relative="1" as="geometry">
            <mxPoint x="775" y="400" as="sourcePoint" />
            <mxPoint x="710" y="711" as="targetPoint" />
          </mxGeometry>
        </mxCell>
      </root>
    </mxGraphModel>
  </diagram>
</mxfile>
